<svg xmlns="http://www.w3.org/2000/svg" viewBox="0 0 32 32"><defs><linearGradient id="a" x1="122.01%" x2="23.3%" y1="100%" y2="2.43%"><stop offset="0%" stop-color="#61B984"/><stop offset="81.06%" stop-color="#61B984"/><stop offset="100%" stop-color="#498A63"/></linearGradient><linearGradient id="b" x1="31.13%" x2="78.14%" y1="93.48%" y2="-3.6%"><stop offset="0%" stop-color="#89356D"/><stop offset="22.52%" stop-color="#B94794"/><stop offset="100%" stop-color="#B94794"/></linearGradient><linearGradient id="c" x1="103.47%" x2="0%" y1="58.18%" y2="30.3%"><stop offset="0%" stop-color="#C7702B"/><stop offset="30.32%" stop-color="#F59C1C"/><stop offset="100%" stop-color="#F59C1C"/></linearGradient></defs><g fill="none" fill-rule="evenodd"><path fill="url(#a)" d="M.14 17.96a15.9 15.9 0 0017.74 13.91 15.8 15.8 0 007.59-3.16c-7.66 5.52-12.81.59-15.98-3.02-4.86-5.6-1.62-19.74.44-19.74h-.31c-4 0-10.41 2.75-9.48 12"/><path fill="url(#b)" d="M9.5 25.63c2.44 3.6 8.47 8.52 16.04 2.93a16.1 16.1 0 002.8-22.46 16.3 16.3 0 00-6.55-5c8.61 3.9 7.73 10.74 5.6 15.02-4.04 8.14-16.43 11.6-17.89 9.51z"/><path fill="url(#c)" d="M15.81 0A15.83 15.83 0 001.17 10.08 16.23 16.23 0 000 16.04v.12c0 .67.05 1.35.14 2.02-.59-9.43 6.55-11.93 9.8-12.23 8.73-.95 18.65 8.06 17.45 10.22 2.42-4.27 3-11.1-5.53-15A15.82 15.82 0 0016 0h-.19z"/></g></svg>